<svg width="14" height="16" viewBox="0 0 14 16" fill="none" xmlns="http://www.w3.org/2000/svg">
<path d="M5.25721 8.96512C4.93112 8.63903 4.40243 8.63903 4.07634 8.96512C3.75025 9.29121 3.75025 9.8199 4.07634 10.146L5.25721 8.96512ZM6.22233 11.1111L5.6319 11.7015C5.78849 11.8581 6.00087 11.9461 6.22233 11.9461C6.44379 11.9461 6.65617 11.8581 6.81276 11.7015L6.22233 11.1111ZM9.92388 8.59043C10.25 8.26435 10.25 7.73565 9.92388 7.40957C9.59779 7.08348 9.0691 7.08348 8.74301 7.40957L9.92388 8.59043ZM11.6096 4.11111V13.4444H13.2796V4.11111H11.6096ZM10.889 14.165H3.11122V15.835H10.889V14.165ZM2.39066 13.4444V4.11111H0.720664V13.4444H2.39066ZM3.11122 3.39056H4.66677V1.72056H3.11122V3.39056ZM9.33344 3.39056H10.889V1.72056H9.33344V3.39056ZM3.11122 14.165C2.71327 14.165 2.39066 13.8424 2.39066 13.4444H0.720664C0.720664 14.7647 1.79095 15.835 3.11122 15.835V14.165ZM11.6096 13.4444C11.6096 13.8424 11.2869 14.165 10.889 14.165V15.835C12.2093 15.835 13.2796 14.7647 13.2796 13.4444H11.6096ZM13.2796 4.11111C13.2796 2.79084 12.2093 1.72056 10.889 1.72056V3.39056C11.2869 3.39056 11.6096 3.71316 11.6096 4.11111H13.2796ZM2.39066 4.11111C2.39066 3.71316 2.71327 3.39056 3.11122 3.39056V1.72056C1.79095 1.72056 0.720664 2.79084 0.720664 4.11111H2.39066ZM4.07634 10.146L5.6319 11.7015L6.81276 10.5207L5.25721 8.96512L4.07634 10.146ZM6.81276 11.7015L9.92388 8.59043L8.74301 7.40957L5.6319 10.5207L6.81276 11.7015ZM6.22233 1.835H7.77789V0.165H6.22233V1.835ZM7.77789 3.27611H6.22233V4.94611H7.77789V3.27611ZM6.22233 3.27611C5.82438 3.27611 5.50178 2.95351 5.50178 2.55556H3.83177C3.83177 3.87582 4.90206 4.94611 6.22233 4.94611V3.27611ZM8.49844 2.55556C8.49844 2.95351 8.17584 3.27611 7.77789 3.27611V4.94611C9.09815 4.94611 10.1684 3.87582 10.1684 2.55556H8.49844ZM7.77789 1.835C8.17584 1.835 8.49844 2.1576 8.49844 2.55556H10.1684C10.1684 1.23529 9.09815 0.165 7.77789 0.165V1.835ZM6.22233 0.165C4.90206 0.165 3.83177 1.23529 3.83177 2.55556H5.50178C5.50178 2.1576 5.82438 1.835 6.22233 1.835V0.165Z" fill="#0053CB"/>
</svg>
