<svg width="25" height="24" viewBox="0 0 25 24" fill="none" xmlns="http://www.w3.org/2000/svg">
<path d="M2.40002 3H8.40002C9.46089 3 10.4783 3.42143 11.2285 4.17157C11.9786 4.92172 12.4 5.93913 12.4 7V21C12.4 20.2044 12.084 19.4413 11.5213 18.8787C10.9587 18.3161 10.1957 18 9.40002 18H2.40002V3Z" stroke="#BDBDBD" stroke-width="2" stroke-linecap="round" stroke-linejoin="round"/>
<path d="M22.4 3H16.4C15.3392 3 14.3217 3.42143 13.5716 4.17157C12.8215 4.92172 12.4 5.93913 12.4 7V21C12.4 20.2044 12.7161 19.4413 13.2787 18.8787C13.8413 18.3161 14.6044 18 15.4 18H22.4V3Z" stroke="#BDBDBD" stroke-width="2" stroke-linecap="round" stroke-linejoin="round"/>
</svg>
