<svg width="269" height="63" viewBox="0 0 269 63" fill="none" xmlns="http://www.w3.org/2000/svg">
<path d="M0 56.0686C10.322 56.0686 18.6895 47.7009 18.6895 37.3791C18.6895 27.057 10.322 18.6895 0 18.6895V31.7721C3.09656 31.7721 5.60683 34.2824 5.60683 37.3791C5.60683 40.4756 3.09656 42.9859 0 42.9859V56.0686Z" fill="#1E88E5"/>
<path d="M62.2984 24.9194C59.1047 23.9077 55.7036 23.3618 52.1749 23.3618C33.6814 23.3618 18.6896 38.3539 18.6896 56.8472C18.6896 58.7035 18.8406 60.5245 19.131 62.2984H39.9365C39.1939 60.6333 38.7809 58.7885 38.7809 56.8472C38.7809 49.4499 44.7776 43.4531 52.1749 43.4531C56.218 43.4531 59.8425 45.2444 62.2984 48.0767V24.9194Z" fill="#90CAF9"/>
<path d="M3.28601 0C4.8355 14.017 16.7192 24.9195 31.1493 24.9195C45.5791 24.9195 57.4629 14.017 59.0123 0H38.9637C37.726 3.1028 34.6935 5.29535 31.1493 5.29535C27.6048 5.29535 24.5725 3.1028 23.3346 0H3.28601Z" fill="#0053CB"/>
<path d="M78.9678 42.4603C76.9515 42.4603 75.1746 42.1389 73.6372 41.4962C72.1123 40.8535 70.9152 39.8958 70.0456 38.623C69.1887 37.3376 68.7602 35.7434 68.7602 33.8406V32.7253H74.639V33.7271C74.639 36.4113 76.0882 37.7535 78.9867 37.7535C80.4359 37.7535 81.5512 37.5203 82.3325 37.054C83.1138 36.5878 83.5045 35.8317 83.5045 34.7857C83.5045 34.0422 83.2146 33.3869 82.6349 32.8198C82.0553 32.2527 81.255 31.7486 80.2343 31.3076C79.2261 30.8539 78.0856 30.4317 76.8129 30.0411C75.414 29.6 74.116 29.0203 72.9189 28.302C71.7217 27.5837 70.7576 26.6701 70.0267 25.5611C69.3084 24.4521 68.9493 23.0848 68.9493 21.4592C68.9493 19.8209 69.384 18.4284 70.2536 17.2816C71.1231 16.1223 72.3077 15.2401 73.8073 14.6352C75.3069 14.0177 77.0019 13.709 78.8922 13.709C80.8707 13.709 82.616 14.0177 84.1283 14.6352C85.6531 15.2401 86.844 16.1538 87.7009 17.3761C88.5704 18.5859 89.0052 20.0982 89.0052 21.9128V23.047H83.1453V22.1775C83.1453 20.9551 82.8051 20.0162 82.1246 19.3609C81.4567 18.7056 80.4044 18.378 78.9678 18.378C77.5816 18.378 76.5041 18.63 75.7354 19.1341C74.9793 19.6382 74.6012 20.4132 74.6012 21.4592C74.6012 22.2153 74.8722 22.858 75.414 23.3873C75.9685 23.9165 76.7246 24.3891 77.6824 24.805C78.6401 25.2208 79.7302 25.6367 80.9526 26.0526C82.616 26.6323 84.0653 27.275 85.3002 27.9807C86.5478 28.6738 87.5119 29.5496 88.1924 30.6082C88.8729 31.6541 89.2131 32.9899 89.2131 34.6156C89.2131 36.2916 88.7784 37.7156 87.9088 38.8876C87.0519 40.047 85.8547 40.9354 84.3173 41.5529C82.7799 42.1578 80.9967 42.4603 78.9678 42.4603Z" fill="#90CAF9"/>
<path d="M112.957 14.1248H122.881V42.0066H117.323V18.1701L111.993 42.0066H104.318L98.8932 18.1323V42.0066H93.3168V14.1248H103.241L108.08 38.037L112.957 14.1248Z" fill="#90CAF9"/>
<path d="M126.361 42.0066L133.318 14.087H142.599L149.517 42.0066H143.506L142.032 35.5418H133.866L132.373 42.0066H126.361ZM134.924 30.9673H140.992L137.968 17.7542L134.924 30.9673Z" fill="#90CAF9"/>
<path d="M152.77 42.0066V14.1248H164.074C166.998 14.1248 169.178 14.7928 170.615 16.1286C172.064 17.4518 172.788 19.3609 172.788 21.8561C172.788 23.2927 172.511 24.5214 171.957 25.5422C171.415 26.5503 170.741 27.3317 169.934 27.8861C169.14 28.4406 168.371 28.7494 167.628 28.8124C168.384 28.8628 169.109 29.0581 169.802 29.3984C170.495 29.726 171.062 30.249 171.503 30.9673C171.944 31.6856 172.165 32.6497 172.165 33.8595V39.1712C172.165 39.7887 172.209 40.362 172.297 40.8913C172.398 41.408 172.543 41.7798 172.732 42.0066H166.853C166.487 41.4521 166.305 40.507 166.305 39.1712V34.54C166.305 33.4436 166.021 32.5993 165.454 32.007C164.887 31.4021 163.98 31.0996 162.732 31.0996H158.517V42.0066H152.77ZM162.694 18.6426H158.517V26.5629H162.808C163.942 26.5629 164.881 26.1849 165.624 25.4288C166.38 24.6727 166.758 23.6582 166.758 22.3854C166.758 21.2134 166.399 20.2998 165.681 19.6445C164.975 18.9766 163.98 18.6426 162.694 18.6426Z" fill="#90CAF9"/>
<path d="M194.462 18.6615H187.6V42.0066H181.759V18.6615H174.916V14.1248H194.462V18.6615Z" fill="#90CAF9"/>
<path d="M215.897 36.3369V42.0077H197.807V14.126H215.897V19.7968H205.482V25.1842H213.799V30.855H205.482V36.3369H215.897Z" fill="#1E88E5"/>
<path d="M220.07 42.0077V14.126H230.428C232.306 14.126 234.026 14.4725 235.589 15.1656C237.152 15.8587 238.5 16.8291 239.634 18.0767C240.768 19.3243 241.644 20.7924 242.262 22.4811C242.879 24.1697 243.188 26.0096 243.188 28.0007C243.188 29.9918 242.879 31.838 242.262 33.5392C241.644 35.2405 240.768 36.7275 239.634 38.0003C238.5 39.2605 237.152 40.2435 235.589 40.9492C234.026 41.6549 232.306 42.0077 230.428 42.0077H220.07ZM229.408 19.7968H227.706V36.3369H229.408C230.491 36.3369 231.487 36.0029 232.394 35.335C233.314 34.6545 234.051 33.6905 234.606 32.4429C235.16 31.1953 235.438 29.7146 235.438 28.0007C235.438 26.2742 235.16 24.7998 234.606 23.5774C234.051 22.355 233.314 21.4225 232.394 20.7798C231.487 20.1245 230.491 19.7968 229.408 19.7968Z" fill="#1E88E5"/>
<path d="M268.657 32.0837C268.657 35.5492 267.661 38.1515 265.67 39.8906C263.691 41.6297 261.001 42.4992 257.598 42.4992C254.196 42.4992 251.505 41.6297 249.527 39.8906C247.561 38.1515 246.578 35.5492 246.578 32.0837V14.126H254.215V32.2727C254.215 33.6842 254.454 34.7616 254.933 35.5051C255.425 36.2486 256.313 36.6204 257.598 36.6204C258.884 36.6204 259.772 36.2486 260.264 35.5051C260.768 34.7616 261.02 33.6842 261.02 32.2727V14.126H268.657V32.0837Z" fill="#1E88E5"/>
</svg>
