<svg width="25" height="24" viewBox="0 0 25 24" fill="none" xmlns="http://www.w3.org/2000/svg">
<path d="M12.6001 11C12.0478 11 11.6001 11.4477 11.6001 12C11.6001 12.5523 12.0478 13 12.6001 13V11ZM15.6001 13C16.1524 13 16.6001 12.5523 16.6001 12C16.6001 11.4477 16.1524 11 15.6001 11V13ZM12.6001 15C12.0478 15 11.6001 15.4477 11.6001 16C11.6001 16.5523 12.0478 17 12.6001 17V15ZM15.6001 17C16.1524 17 16.6001 16.5523 16.6001 16C16.6001 15.4477 16.1524 15 15.6001 15V17ZM9.6001 11C9.04781 11 8.6001 11.4477 8.6001 12C8.6001 12.5523 9.04781 13 9.6001 13V11ZM9.6101 13C10.1624 13 10.6101 12.5523 10.6101 12C10.6101 11.4477 10.1624 11 9.6101 11V13ZM9.6001 15C9.04781 15 8.6001 15.4477 8.6001 16C8.6001 16.5523 9.04781 17 9.6001 17V15ZM9.6101 17C10.1624 17 10.6101 16.5523 10.6101 16C10.6101 15.4477 10.1624 15 9.6101 15V17ZM18.6001 7V19H20.6001V7H18.6001ZM17.6001 20H7.6001V22H17.6001V20ZM6.6001 19V7H4.6001V19H6.6001ZM7.6001 6H9.6001V4H7.6001V6ZM15.6001 6H17.6001V4H15.6001V6ZM7.6001 20C7.04781 20 6.6001 19.5523 6.6001 19H4.6001C4.6001 20.6569 5.94324 22 7.6001 22V20ZM18.6001 19C18.6001 19.5523 18.1524 20 17.6001 20V22C19.257 22 20.6001 20.6569 20.6001 19H18.6001ZM20.6001 7C20.6001 5.34315 19.257 4 17.6001 4V6C18.1524 6 18.6001 6.44772 18.6001 7H20.6001ZM6.6001 7C6.6001 6.44772 7.04781 6 7.6001 6V4C5.94324 4 4.6001 5.34315 4.6001 7H6.6001ZM12.6001 13H15.6001V11H12.6001V13ZM12.6001 17H15.6001V15H12.6001V17ZM11.6001 4H13.6001V2H11.6001V4ZM13.6001 6H11.6001V8H13.6001V6ZM11.6001 6C11.0478 6 10.6001 5.55228 10.6001 5H8.6001C8.6001 6.65685 9.94324 8 11.6001 8V6ZM14.6001 5C14.6001 5.55228 14.1524 6 13.6001 6V8C15.257 8 16.6001 6.65685 16.6001 5H14.6001ZM13.6001 4C14.1524 4 14.6001 4.44772 14.6001 5H16.6001C16.6001 3.34315 15.257 2 13.6001 2V4ZM11.6001 2C9.94324 2 8.6001 3.34315 8.6001 5H10.6001C10.6001 4.44772 11.0478 4 11.6001 4V2ZM9.6001 13H9.6101V11H9.6001V13ZM9.6001 17H9.6101V15H9.6001V17Z" fill="#2F80ED"/>
</svg>
