<svg width="27" height="9" viewBox="0 0 27 9" fill="none" xmlns="http://www.w3.org/2000/svg">
<path d="M0.0859375 8H1.56055V5.03125H4.73438V8H6.20898V0.954102H4.73438V3.81543H1.56055V0.954102H0.0859375V8ZM9.66113 8.10742C11.2432 8.10742 12.2539 7.0918 12.2539 5.38281V5.37305C12.2539 3.67871 11.2236 2.6582 9.65625 2.6582C8.09375 2.6582 7.06836 3.68848 7.06836 5.37305V5.38281C7.06836 7.08691 8.06934 8.10742 9.66113 8.10742ZM9.66602 6.98926C8.96289 6.98926 8.51855 6.4082 8.51855 5.38281V5.37305C8.51855 4.3623 8.96777 3.77637 9.65625 3.77637C10.3496 3.77637 10.8037 4.3623 10.8037 5.37305V5.38281C10.8037 6.40332 10.3594 6.98926 9.66602 6.98926ZM12.9912 8H14.417V4.84082C14.417 4.25 14.7832 3.83984 15.3252 3.83984C15.8525 3.83984 16.1699 4.17188 16.1699 4.7334V8H17.542V4.81641C17.542 4.23535 17.8984 3.83984 18.4404 3.83984C18.9922 3.83984 19.2949 4.17188 19.2949 4.77734V8H20.7207V4.4209C20.7207 3.36621 20.0322 2.6582 19.0068 2.6582C18.2402 2.6582 17.6152 3.07812 17.3809 3.7373H17.3516C17.1758 3.04883 16.6436 2.6582 15.9111 2.6582C15.208 2.6582 14.6611 3.04883 14.4463 3.64453H14.417V2.76562H12.9912V8ZM24.0068 8.10742C25.501 8.10742 26.2236 7.22363 26.3848 6.45215L26.3994 6.39844H25.0908L25.0811 6.42773C24.9785 6.7207 24.6221 7.04297 24.0361 7.04297C23.3086 7.04297 22.8545 6.55469 22.8398 5.71973H26.4434V5.28027C26.4434 3.69824 25.4814 2.6582 23.9482 2.6582C22.415 2.6582 21.4336 3.72266 21.4336 5.3877V5.39258C21.4336 7.06738 22.4053 8.10742 24.0068 8.10742ZM23.9727 3.72266C24.5635 3.72266 24.9883 4.09863 25.0762 4.82129H22.8545C22.9473 4.11328 23.3867 3.72266 23.9727 3.72266Z" fill="#2F80ED"/>
</svg>
