<svg width="428" height="346" viewBox="0 0 428 346" fill="none" xmlns="http://www.w3.org/2000/svg">
<path fill-rule="evenodd" clip-rule="evenodd" d="M26.7016 184.917V170.306L165.744 124.444C165.744 124.444 186.777 134.31 217.453 152.74C248.127 171.169 394.256 154.75 394.256 154.75V168.165L187.633 282.304L26.7016 184.917Z" fill="#9FDDFF"/>
<path fill-rule="evenodd" clip-rule="evenodd" d="M166.334 123.903L166.956 124.195C180.639 130.639 197.343 139.769 217.069 151.585L218.294 152.319C238.593 164.514 297.473 165.184 394.747 154.254L395.365 154.184V168.547L188.176 283L26.7016 185.285V169.959L166.334 123.903ZM166.262 125.095L27.811 170.762V184.659L188.2 281.718L394.256 167.892V155.425L391.956 155.682C297.104 166.197 239.295 165.539 218.352 153.638L217.722 153.27C197.695 141.238 180.756 131.947 166.907 125.399L166.262 125.095Z" fill="black"/>
<path fill-rule="evenodd" clip-rule="evenodd" d="M27.4439 169.785L155.118 114.678C155.118 114.678 252.807 81.6557 283.48 100.086C314.156 118.516 394.256 154.75 394.256 154.75L187.634 266.769L27.4439 169.785Z" fill="#FFF5F5"/>
<path fill-rule="evenodd" clip-rule="evenodd" d="M155.453 114.223L155.495 114.207C220.772 92.1415 263.682 87.2635 284.321 99.6651C304.75 111.937 341.659 130.152 395.038 154.3L396.056 154.76L188.173 267.462L26.7905 169.757L155.453 114.223ZM392.983 154.587C340.957 131.022 304.758 113.158 284.371 100.987L283.75 100.616C263.49 88.4444 220.825 93.2947 155.85 115.258L155.869 115.252L29.2065 169.922L188.204 266.183L393.562 154.849L392.983 154.587Z" fill="black"/>
<path fill-rule="evenodd" clip-rule="evenodd" d="M27.3301 169.785L246.549 63.5549C246.549 63.5549 288.66 81.5566 319.336 99.9866C337.509 110.905 367.683 130.688 385.606 139.704C390.66 142.247 399.338 144.991 399.338 144.991L203.379 251.866C203.379 251.866 189.865 265.151 144.518 239.347C99.1704 213.544 27.3301 169.785 27.3301 169.785Z" fill="white"/>
<path fill-rule="evenodd" clip-rule="evenodd" d="M332.022 106.835L349.909 117.975C350.314 118.226 350.711 118.474 351.107 118.718L353.926 120.46C368.346 129.348 378.602 135.336 386.411 139.263L386.585 139.352C389.909 141.005 394.403 142.728 400.059 144.517L401.299 144.91L204.263 252.374L204.041 252.587C194.758 261.248 175.329 257.118 145.708 240.401L144.797 239.885C115.165 223.023 77.0526 200.414 30.4588 172.057L26.7265 169.784L247.09 63L249.001 63.8203C276.387 75.5963 300.111 87.5111 320.176 99.5657C323.408 101.508 327.05 103.745 332.022 106.835ZM247.118 64.2189L29.0418 169.895L33.7922 172.786C78.6543 200.066 115.536 221.939 144.437 238.403L145.346 238.919C175.372 256.005 194.787 260.136 203.544 251.528L203.599 251.472L398.489 145.179L398.223 145.093C393.215 143.459 389.171 141.877 386.092 140.344L385.911 140.254C378.227 136.389 368.21 130.553 354.225 121.947L352.456 120.857L349.324 118.918L329.963 106.863C326.362 104.628 323.483 102.86 320.917 101.308L318.992 100.149C298.691 88.0016 274.656 75.9917 246.885 64.1196L247.118 64.2189Z" fill="black"/>
<path d="M261.046 96.0091C263.321 95.9289 264.456 95.9425 265.851 96.1062C267.71 96.3243 269.149 97.0611 270.337 98.2989C271.191 99.1888 271.777 100.108 272.731 101.906L273.214 102.82L273.372 103.119C274.847 105.865 275.938 107.196 277.796 108.111L278.107 108.263C280.107 109.222 281.941 109.862 285.553 110.94L287.866 111.626C290.557 112.431 292.016 112.924 293.697 113.625C294.63 114.013 295.337 114.498 296.53 115.494L297.448 116.271L298.422 117.083C299.773 118.217 301.09 119.368 303.337 121.36L306.458 124.122L307.291 124.851L306.561 125.687L305.177 124.473L301.679 121.374C299.773 119.689 298.588 118.665 297.287 117.58L296.61 117.016L296.161 116.634C294.874 115.54 294.191 115.044 293.348 114.681L292.973 114.526C291.32 113.852 289.792 113.352 286.862 112.485L285.225 112C281.375 110.851 279.502 110.187 277.308 109.107C275.147 108.045 273.932 106.532 272.315 103.494L271.757 102.436C270.847 100.72 270.301 99.8626 269.535 99.067C268.525 98.0117 267.321 97.3956 265.721 97.2081L265.454 97.1784C264.214 97.0486 263.096 97.0452 260.922 97.124L259.629 97.1723C258.877 97.1989 258.4 97.21 257.876 97.2117L257.726 97.212V96.1023L258.159 96.1001C258.564 96.0959 258.98 96.0848 259.568 96.064L261.046 96.0091Z" fill="black"/>
<path fill-rule="evenodd" clip-rule="evenodd" d="M221.356 115.268C220.928 112.315 218.258 111.439 214.131 111.935C213.093 112.06 212.007 112.264 210.775 112.549C210.46 112.621 209.811 112.781 209.241 112.92C208.819 113.024 208.44 113.117 208.273 113.156L207.877 113.244L207.627 114.302L207.592 114.323C207.2 114.566 207.056 115.016 207.133 115.552L207.14 115.599C207.172 115.799 207.222 115.988 207.31 116.24L207.331 116.297L206.928 116.409L206.954 116.499C207.779 119.25 211.248 120.813 215.048 120.627C218.998 120.434 221.81 118.406 221.356 115.268ZM214.264 113.036C217.864 112.603 219.948 113.288 220.258 115.427C220.595 117.755 218.379 119.353 214.993 119.519L214.875 119.524C212.561 119.613 210.435 118.982 209.15 117.861L209.088 117.806L209.063 117.713C209.001 117.498 208.908 117.25 208.764 116.895L208.589 116.467C208.377 115.948 208.283 115.683 208.242 115.46L208.231 115.394L208.227 115.357C208.223 115.322 208.221 115.293 208.221 115.271L208.221 115.252L208.56 115.177L208.798 114.171L210.831 113.675L211.261 113.576C212.361 113.328 213.336 113.148 214.264 113.036Z" fill="black"/>
<path fill-rule="evenodd" clip-rule="evenodd" d="M199.253 125.829C198.825 122.877 196.155 122 192.028 122.496C190.99 122.621 189.904 122.826 188.672 123.11C188.358 123.183 187.708 123.342 187.138 123.482C186.716 123.585 186.337 123.678 186.17 123.717L185.775 123.806L185.524 124.864L185.489 124.884C185.097 125.128 184.953 125.578 185.03 126.114L185.037 126.16C185.069 126.36 185.119 126.55 185.208 126.801L185.228 126.859L184.825 126.97L184.851 127.061C185.677 129.811 189.145 131.375 192.945 131.189C196.896 130.995 199.707 128.967 199.253 125.829ZM192.161 123.598C195.762 123.165 197.845 123.849 198.155 125.988C198.492 128.317 196.276 129.915 192.891 130.08L192.773 130.085C190.458 130.175 188.333 129.544 187.048 128.423L186.985 128.367L186.96 128.274C186.898 128.06 186.805 127.811 186.661 127.456L186.486 127.029C186.274 126.51 186.18 126.244 186.14 126.021L186.129 125.956L186.124 125.918C186.12 125.883 186.119 125.855 186.118 125.833L186.119 125.814L186.458 125.738L186.696 124.732L188.728 124.237L189.159 124.137C190.258 123.889 191.234 123.709 192.161 123.598Z" fill="black"/>
<path fill-rule="evenodd" clip-rule="evenodd" d="M177.337 138.867C176.91 135.915 174.24 135.038 170.113 135.535C169.074 135.66 167.989 135.864 166.756 136.149C166.442 136.221 165.793 136.381 165.222 136.52C164.8 136.624 164.422 136.716 164.255 136.756L163.859 136.844L163.609 137.902L163.574 137.923C163.182 138.166 163.038 138.616 163.115 139.152L163.122 139.199C163.154 139.399 163.204 139.588 163.292 139.84L163.313 139.897L162.91 140.009L162.936 140.099C163.762 142.849 167.23 144.413 171.029 144.227C174.98 144.033 177.792 142.006 177.337 138.867ZM170.245 136.636C173.846 136.203 175.93 136.888 176.239 139.027C176.576 141.355 174.361 142.953 170.975 143.119L170.857 143.124C168.543 143.213 166.417 142.582 165.132 141.461L165.07 141.406L165.045 141.313C164.983 141.098 164.89 140.85 164.746 140.495L164.571 140.068C164.359 139.549 164.265 139.282 164.224 139.06L164.213 138.994L164.208 138.957C164.205 138.922 164.203 138.893 164.203 138.871L164.203 138.852L164.542 138.777L164.78 137.771L166.813 137.275L167.244 137.176C168.342 136.928 169.318 136.748 170.245 136.636Z" fill="black"/>
<path d="M229.655 128.261L230.109 127.249L232.381 128.268L238.46 130.971C241.145 132.17 242.887 132.965 244.757 133.848L246.08 134.474L246.571 134.702C248.743 135.718 249.883 136.329 251.037 137.192L252.236 138.102C256.952 141.695 259.595 143.834 260.516 144.765L260.544 144.795C260.827 145.085 260.966 145.269 261.007 145.496C261.016 145.551 261.019 145.605 261.013 145.658L261.007 145.714L263.604 147.398L265.316 148.513L264.708 149.442L260.955 147.003C259.817 146.266 258.905 145.677 258.203 145.228L257.046 144.49L256.905 144.402L256.88 144.383L256.824 144.333L257.246 143.41L256.605 142.895C255.268 141.83 253.528 140.48 251.354 138.826L250.452 138.14C249.426 137.364 248.413 136.801 246.546 135.917L245.054 135.217L243.736 134.595C242.144 133.847 240.562 133.127 238.315 132.121L230.501 128.643L229.655 128.261Z" fill="black"/>
<path d="M207.551 138.823L208.008 137.812L210.279 138.83L216.357 141.533C219.041 142.732 220.784 143.528 222.653 144.411L223.978 145.036L224.467 145.265C226.639 146.28 227.779 146.891 228.934 147.755L230.132 148.664C234.851 152.257 237.494 154.396 238.412 155.327L238.443 155.357C238.726 155.648 238.865 155.831 238.903 156.058C238.912 156.113 238.915 156.168 238.912 156.22L238.903 156.276L241.5 157.961L243.212 159.075L242.607 160.005L238.854 157.565C237.716 156.828 236.801 156.239 236.102 155.79L234.942 155.053L234.803 154.964L234.778 154.945L234.72 154.895L235.142 153.972L234.501 153.458C233.167 152.392 231.424 151.042 229.252 149.388L228.349 148.703C227.324 147.926 226.31 147.364 224.444 146.48L222.951 145.78L221.634 145.157C220.04 144.409 218.461 143.689 216.212 142.684L208.399 139.205L207.551 138.823Z" fill="black"/>
<path d="M185.636 151.861L186.092 150.85L188.363 151.869L194.441 154.571C197.126 155.77 198.869 156.566 200.738 157.449L202.062 158.074L202.552 158.303C204.724 159.318 205.864 159.929 207.019 160.793L208.217 161.702C212.935 165.296 215.579 167.435 216.497 168.366L216.527 168.396C216.809 168.686 216.948 168.87 216.988 169.096C216.998 169.152 217 169.206 216.996 169.259L216.988 169.314L219.585 170.999L221.297 172.113L220.691 173.043L216.937 170.603C215.8 169.867 214.886 169.277 214.185 168.828L213.027 168.091L212.887 168.002L212.862 167.983L212.806 167.933L213.227 167.011L212.586 166.496C211.251 165.431 209.51 164.081 207.336 162.426L206.433 161.741C205.409 160.964 204.395 160.402 202.528 159.518L201.035 158.818L199.719 158.195C198.125 157.447 196.545 156.728 194.296 155.722L186.484 152.243L185.636 151.861Z" fill="black"/>
<path d="M106.317 149.235L106.727 148.205L107.358 148.428C109.516 149.198 116.671 151.771 120.781 153.311L121.374 153.534C122.09 153.805 122.787 154.07 123.463 154.33L124.504 154.733C129.411 156.642 132.951 158.175 134.812 159.251L134.967 159.342L134.4 160.296L134.252 160.21C132.406 159.143 128.747 157.566 123.675 155.602L123.466 155.521C122.801 155.264 122.114 155.001 121.408 154.733L120.097 154.24C117.553 153.29 113.974 151.989 111.1 150.951L106.317 149.235Z" fill="black"/>
<path d="M101.017 154.772L101.424 153.74L103.469 154.542C103.909 154.714 104.341 154.882 104.769 155.048L110.034 157.079C111.666 157.713 112.49 158.055 113.337 158.459L113.481 158.529C114.72 159.146 120.788 162.552 124.32 164.508L125.522 165.171L124.989 166.144L123.777 165.476C120.188 163.489 114.065 160.051 112.959 159.509L112.6 159.339C111.951 159.038 111.256 158.748 110.111 158.3L105.328 156.455C104.156 156.002 102.982 155.544 101.717 155.047L101.017 154.772Z" fill="black"/>
<path d="M84.3562 160.313L85.0032 159.412L86.0923 160.192C97.3046 168.214 99.7497 169.499 112.34 174.081L113.149 174.375L112.77 175.418L111.559 174.977C99.0872 170.429 96.5692 169.061 85.093 160.842L84.3562 160.313Z" fill="black"/>
<path d="M153.233 173.977L153.503 172.901L158.519 174.163C161.756 174.987 161.482 174.974 162.597 175.531L164.346 176.405L164.82 176.636C165.466 176.949 166.166 177.279 166.962 177.645L167.664 177.965C170.552 179.275 174.376 180.912 179.454 182.993L180.523 183.429C181.599 183.869 182.294 184.091 182.66 184.145L182.676 184.147L182.682 184.142C182.771 184.062 182.887 184.01 183.016 184.001L183.066 184C183.19 184.002 183.276 184.036 183.36 184.087C183.382 184.1 183.401 184.113 183.42 184.128L183.449 184.15C183.47 184.168 183.492 184.186 183.524 184.214L183.895 184.547C184.355 184.956 184.943 185.457 185.782 186.147L186.123 186.427L185.421 187.287L184.859 186.825C184.123 186.216 183.587 185.758 183.157 185.376L183.011 185.246L182.991 185.25C182.899 185.266 182.8 185.269 182.692 185.263L182.626 185.258C182.147 185.212 181.348 184.965 180.104 184.457L178.77 183.912C173.811 181.877 170.056 180.269 167.205 178.975L166.498 178.653C165.561 178.222 164.756 177.841 164.015 177.478L162.872 176.911L161.774 176.357C161.076 175.995 160.955 175.926 158.036 175.185L153.233 173.977Z" fill="black"/>
<path d="M150.521 180.577L150.852 179.519L152.822 180.134C153.716 180.412 154.579 180.679 155.428 180.94L162.165 182.996C164.143 183.603 165.144 183.934 166.156 184.321L166.609 184.497C167.444 184.829 168.291 185.201 169.799 185.898L174.945 188.295L177.185 189.331C178.309 189.85 179.472 190.382 180.706 190.945L181.455 191.286L180.996 192.296L178.795 191.292C177.848 190.859 176.939 190.44 176.049 190.029L174.228 189.186L169.474 186.97C167.782 186.187 166.918 185.809 166.017 185.457L165.626 185.306C164.841 185.01 164.029 184.737 162.699 184.322L156.189 182.335C154.746 181.893 153.284 181.44 151.717 180.952L150.521 180.577Z" fill="black"/>
<path d="M135.403 188.054L135.878 187.051L136.432 187.315C140.325 189.184 143.589 191.008 149.466 194.523L154.112 197.314C159.118 200.313 161.909 201.903 165.187 203.574L165.562 203.765L165.061 204.755L164.308 204.371C160.872 202.605 157.872 200.872 152.157 197.434L149.533 195.856C143.351 192.15 140.021 190.275 136.088 188.381L135.403 188.054Z" fill="black"/>
<path d="M184.26 217.217C187.707 216.995 191.239 217.846 195.01 219.642C197.875 221.007 200.666 222.779 204.296 225.417L204.823 225.801C205.421 226.245 209.255 229.095 210.63 230.08L210.816 230.212L210.176 231.118L209.882 230.908C208.302 229.772 204.173 226.7 204.09 226.639L203.647 226.316C200.066 223.714 197.325 221.973 194.533 220.643C190.99 218.956 187.698 218.148 184.518 218.313L184.331 218.324L184.26 217.217Z" fill="black"/>
<path d="M196.927 210.954L197.226 209.885L197.547 209.976C202.124 211.295 205.917 213.221 212.362 217.151L215.085 218.82C218.388 220.838 220.3 221.94 222.509 223.059L222.63 223.12L222.13 224.111L221.765 223.925C219.705 222.873 217.859 221.81 214.868 219.988L211.788 218.101C205.422 214.218 201.697 212.327 197.24 211.042L196.927 210.954Z" fill="black"/>
<path d="M203.262 201.654L203.559 200.584L208.332 201.898C209.572 202.242 210.681 202.554 211.112 202.686C211.601 202.835 212.052 202.981 212.492 203.132L213.054 203.33C214.877 203.987 216.575 204.742 221.229 206.982L224.179 208.407C226.47 209.517 227.496 210.08 227.801 210.415C228.022 210.657 228.114 210.985 227.846 211.288C227.705 211.448 227.552 211.5 227.349 211.52L227.246 211.528C227.102 211.536 226.97 211.529 226.601 211.501L226.255 211.476L226.169 211.47C226.04 211.462 225.925 211.457 225.824 211.456L225.719 211.455L225.742 211.48C226.309 212.094 227.778 213.173 230.279 214.747L230.983 215.188C231.669 215.613 232.343 215.752 233.844 215.84L234.715 215.887C235.264 215.919 235.602 215.952 235.971 216.011L236.093 216.031L235.905 217.125L235.794 217.106C235.466 217.054 235.153 217.024 234.631 216.994L233.882 216.954C232.124 216.856 231.311 216.696 230.398 216.131L229.824 215.773C226.664 213.791 225.042 212.547 224.587 211.793C224.233 211.206 224.432 210.63 225.04 210.434C225.188 210.386 225.352 210.36 225.547 210.35L225.588 210.348L225.171 210.134C224.892 209.993 224.58 209.837 224.233 209.667L222.863 209.002C216.666 206.004 214.745 205.122 212.74 204.397L212.343 204.255C211.92 204.106 211.488 203.964 211.023 203.82L210.62 203.697C209.916 203.489 208.271 203.031 206.715 202.602L203.262 201.654Z" fill="black"/>
</svg>
