<svg width="23" height="18" viewBox="0 0 23 18" fill="none" xmlns="http://www.w3.org/2000/svg">
<path d="M4.95 2.11L1.5 9V15C1.5 15.5304 1.71071 16.0391 2.08579 16.4142C2.46086 16.7893 2.96957 17 3.5 17H19.5C20.0304 17 20.5391 16.7893 20.9142 16.4142C21.2893 16.0391 21.5 15.5304 21.5 15V9L18.05 2.11C17.8844 1.77679 17.6292 1.49637 17.313 1.30028C16.9967 1.10419 16.6321 1.0002 16.26 1H6.74C6.36792 1.0002 6.00326 1.10419 5.68704 1.30028C5.37083 1.49637 5.11558 1.77679 4.95 2.11V2.11Z" stroke="#BDBDBD" stroke-width="1.5" stroke-linecap="round" stroke-linejoin="round"/>
</svg>
